<?xml version="1.0" encoding="UTF-8"?>
<svg id="Capa_1" data-name="Capa 1" xmlns="http://www.w3.org/2000/svg" viewBox="0 0 496 496">
  <defs>
    <style>
      .cls-1 {
        fill: #1ed760;
      }
    </style>
  </defs>
  <path class="cls-1" d="M248,0C111.1,0,0,111.1,0,248s111.1,248,248,248,248-111.1,248-248S384.9,0,248,0Z"/>
  <path d="M375.6,299.3c-5.2,0-8.7-2.3-12.3-4.2-62.5-37-155.7-51.9-238.6-29.4-4.8,1.3-7.4,2.6-11.9,2.6-10.7,0-19.4-8.7-19.4-19.4s5.2-17.8,15.5-20.7c27.8-7.8,56.2-13.6,97.8-13.6,64.9,0,127.6,16.1,177,45.5,8.1,4.8,11.3,11,11.3,19.7-.1,10.8-8.5,19.5-19.4,19.5Z"/>
</svg>