<?xml version="1.0" encoding="UTF-8"?>
<svg id="Capa_1" data-name="Capa 1" xmlns="http://www.w3.org/2000/svg" viewBox="0 0 496 496">
  <defs>
    <style>
      .cls-1 {
        fill: #1ed760;
      }
    </style>
  </defs>
  <path class="cls-1" d="M248,0C111.1,0,0,111.1,0,248s111.1,248,248,248,248-111.1,248-248S384.9,0,248,0Z"/>
  <path d="M406.6,223.1c-5.2,0-8.4-1.3-12.9-3.9-71.2-42.5-198.5-52.7-280.9-29.7-3.6,1-8.1,2.6-12.9,2.6-13.2,0-23.3-10.3-23.3-23.6s8.4-21.3,17.4-23.9c35.2-10.3,74.6-15.2,117.5-15.2,73,0,149.5,15.2,205.4,47.8,7.8,4.5,12.9,10.7,12.9,22.6,0,13.6-11,23.3-23.2,23.3h0Z"/>
</svg>