<?xml version="1.0" encoding="UTF-8"?>
<svg id="Capa_1" data-name="Capa 1" xmlns="http://www.w3.org/2000/svg" viewBox="0 0 496 496">
  <defs>
    <style>
      .cls-1 {
        fill: #1ed760;
      }
    </style>
  </defs>
  <path class="cls-1" d="M248,0C111.1,0,0,111.1,0,248s111.1,248,248,248,248-111.1,248-248S384.9,0,248,0Z"/>
  <path d="M348.7,364.9c-4.2,0-6.8-1.3-10.7-3.6-62.4-37.6-135-39.2-206.7-24.5-3.9,1-9,2.6-11.9,2.6-9.7,0-15.8-7.7-15.8-15.8,0-10.3,6.1-15.2,13.6-16.8,81.9-18.1,165.6-16.5,237,26.2,6.1,3.9,9.7,7.4,9.7,16.5s-7.1,15.4-15.2,15.4h0Z"/>
</svg>